<svg xmlns="http://www.w3.org/2000/svg" width="900" height="900" viewBox="0 0 900 900" role="img" aria-label="Samsung Galaxy A14 5G 128GB"><defs><linearGradient id="bg" x1="0" y1="0" x2="1" y2="1"><stop offset="0" stop-color="hsl(29,72%,48%)"/><stop offset="1" stop-color="hsl(71,72%,58%)"/></linearGradient><radialGradient id="screen" cx="50%" cy="30%" r="80%"><stop offset="0" stop-color="#ffffff"/><stop offset="1" stop-color="#e2e8f0"/></radialGradient><filter id="shadow" x="-30%" y="-30%" width="160%" height="160%"><feDropShadow dx="0" dy="30" stdDeviation="28" flood-color="#0f172a" flood-opacity=".30"/></filter></defs><rect width="900" height="900" rx="92" fill="url(#bg)"/><circle cx="170" cy="160" r="125" fill="#fff" opacity=".16"/><circle cx="765" cy="720" r="175" fill="#fff" opacity=".13"/><circle cx="736" cy="156" r="54" fill="#fff" opacity=".13"/><g filter="url(#shadow)"><rect x="286" y="92" width="328" height="700" rx="58" fill="#111827"/><rect x="309" y="130" width="282" height="608" rx="39" fill="url(#screen)"/><rect x="407" y="111" width="86" height="12" rx="6" fill="#334155"/><circle cx="450" cy="764" r="14" fill="#334155" opacity=".65"/></g><rect x="345" y="206" width="210" height="210" rx="42" fill="hsl(239,52%,28%)" opacity=".94"/><circle cx="406" cy="267" r="34" fill="#fff" opacity=".90"/><circle cx="494" cy="267" r="34" fill="#fff" opacity=".90"/><circle cx="406" cy="354" r="33" fill="#fff" opacity=".88"/><circle cx="495" cy="354" r="18" fill="#fff" opacity=".74"/><text x="450" y="542" text-anchor="middle" font-family="Arial, sans-serif" font-size="37" font-weight="800" fill="#0f172a">AI sourcing visual</text><text x="450" y="604" text-anchor="middle" font-family="Arial, sans-serif" font-size="31" font-weight="800" fill="#0f172a">Samsung Galaxy A14</text><text x="450" y="646" text-anchor="middle" font-family="Arial, sans-serif" font-size="31" font-weight="800" fill="#0f172a">5G 128GB</text><text x="450" y="735" text-anchor="middle" font-family="Arial, sans-serif" font-size="21" font-weight="700" fill="#475569">Image for request preview · admin verifies product photo</text></svg>